<svg
  width="149"
  height="80"
  viewBox="0 0 149 80"
  fill="none"
  xmlns="http://www.w3.org/2000/svg"
>
  <g clip-path="url(#clip0_149_1194)">
    <path d="M65.1184 44.6194C67.0168 44.6992 68.9541 44.6468 70.8552 44.6172C70.7985 48.0389 70.848 51.4701 70.8477 54.8927L70.8549 72.7975C69.2595 72.7873 67.6641 72.7872 66.0686 72.7973C66.082 70.7981 66.0831 68.799 66.072 66.7999C65.8214 66.813 65.5662 66.8023 65.3149 66.8009C65.1743 67.6341 64.9209 68.4811 64.5911 69.2589C63.9038 70.8797 62.8013 72.201 61.1358 72.8627C59.1424 73.6547 56.8255 73.4209 54.888 72.5914C54.698 72.498 54.5103 72.4002 54.3248 72.2981C52.2401 71.1345 50.9261 68.9204 50.3029 66.6762C49.343 63.2193 49.5589 58.6426 51.3609 55.4793C52.3459 53.7505 53.8361 52.4486 55.7759 51.9246C57.6257 51.4249 59.9713 51.4735 61.6643 52.4512C63.6524 53.5994 64.6401 55.9006 65.2007 58.0216L66.0893 58.0098C65.6504 56.0269 65.2846 54.0629 65.1624 52.0325C65.0149 49.5812 65.1422 47.0788 65.1184 44.6194ZM61.3169 68.5771C62.5171 68.2958 63.4866 67.5463 64.131 66.5044C65.1542 64.85 65.3935 62.5536 64.9496 60.6802C64.5884 59.1564 63.8002 57.6485 62.4271 56.8113C62.3765 56.781 62.3252 56.7519 62.2734 56.7238C62.2216 56.6957 62.1692 56.6687 62.1163 56.6427C62.0633 56.6168 62.0098 56.5919 61.9559 56.5682C61.9019 56.5444 61.8475 56.5218 61.7926 56.5003C61.7377 56.4788 61.6824 56.4585 61.6266 56.4393C61.5708 56.4201 61.5147 56.402 61.4583 56.3851C61.4018 56.3682 61.345 56.3525 61.2878 56.338C61.2307 56.3234 61.1732 56.31 61.1155 56.2978C61.0579 56.2856 61 56.2746 60.9418 56.2648C60.8837 56.255 60.8254 56.2465 60.7669 56.239C60.7084 56.2316 60.6498 56.2255 60.591 56.2205C60.5323 56.2155 60.4734 56.2117 60.4145 56.2092C60.3556 56.2066 60.2966 56.2053 60.2377 56.2052C60.1788 56.205 60.1198 56.2061 60.0609 56.2084C60.002 56.2107 59.9431 56.2143 59.8844 56.219C59.8256 56.2237 59.7669 56.2297 59.7084 56.2368C58.5483 56.4287 57.6684 56.9465 56.979 57.9147C55.7296 59.6696 55.5331 62.1769 55.8927 64.2422C56.143 65.6793 56.7965 67.1486 58.0304 68.0024C58.9447 68.635 60.1588 68.8146 61.242 68.5933C61.2671 68.5882 61.2919 68.5824 61.3169 68.5771Z" fill="black"/>
    <!-- ...rest of the DarkLogo SVG paths... -->
  </g>
  <defs>
    <clipPath id="clip0_149_1194">
      <rect width="149" height="80" fill="white" />
    </clipPath>
  </defs>
</svg>
